<svg width="36" height="36" viewBox="0 0 36 36" fill="none" xmlns="http://www.w3.org/2000/svg">
<path fill-rule="evenodd" clip-rule="evenodd" d="M15.3511 1.73269e-07H20.4823C23.1546 -1.04562e-05 25.2495 -1.8701e-05 26.9232 0.159112C28.6291 0.321312 30.0259 0.657615 31.2573 1.4122C32.5468 2.2024 33.6309 3.28657 34.4211 4.57605C35.1757 5.80742 35.512 7.20426 35.6742 8.91018C35.8334 10.5838 35.8333 12.6787 35.8333 15.351V17.1297C35.8333 19.0319 35.8333 20.5233 35.7511 21.7281C35.6675 22.9538 35.4946 23.974 35.1038 24.9174C34.1312 27.2656 32.2656 29.1312 29.9174 30.1038C28.5758 30.6596 27.0477 30.7828 24.9555 30.8189C24.2237 30.8315 23.7601 30.8408 23.4068 30.8799C23.0766 30.9164 22.9486 30.97 22.8737 31.0136C22.7947 31.0596 22.6871 31.1433 22.5002 31.3997C22.2979 31.6773 22.0694 32.0608 21.7069 32.6731L20.8034 34.1995C19.5142 36.3777 16.3191 36.3777 15.0298 34.1995L14.1263 32.6731C13.7639 32.0608 13.5354 31.6773 13.3331 31.3997C13.1462 31.1433 13.0385 31.0596 12.9595 31.0136C12.8846 30.97 12.7566 30.9164 12.4265 30.8799C12.0731 30.8408 11.6096 30.8315 10.8778 30.8189C8.78563 30.7828 7.25757 30.6596 5.91595 30.1038C3.56777 29.1312 1.70214 27.2656 0.729488 24.9174C0.338715 23.974 0.165826 22.9538 0.0821919 21.7281C-9.3629e-06 20.5233 -5.09181e-06 19.0319 3.71951e-07 17.1297L1.73269e-07 15.3511C-1.04562e-05 12.6788 -1.8701e-05 10.5838 0.159112 8.91018C0.321312 7.20426 0.657615 5.80742 1.4122 4.57605C2.2024 3.28657 3.28657 2.2024 4.57606 1.4122C5.80742 0.657615 7.20426 0.321312 8.91018 0.159112C10.5838 -1.8701e-05 12.6788 -1.04562e-05 15.3511 1.73269e-07ZM9.14681 2.64789C7.62389 2.79269 6.65484 3.07038 5.8823 3.5438C4.9292 4.12786 4.12786 4.9292 3.5438 5.8823C3.07038 6.65484 2.79269 7.62389 2.64789 9.14681C2.50132 10.6883 2.5 12.6646 2.5 15.4167V17.0833C2.5 19.0419 2.50068 20.4482 2.57639 21.5579C2.65134 22.6564 2.79562 23.3727 3.03919 23.9607C3.7581 25.6963 5.13704 27.0752 6.87266 27.7941C7.73205 28.1501 8.82844 28.2832 10.9208 28.3193L10.9739 28.3202C11.6372 28.3316 12.2185 28.3416 12.7016 28.3951C13.2208 28.4526 13.7285 28.5687 14.2164 28.8525C14.7003 29.1339 15.0492 29.5098 15.3534 29.9272C15.6345 30.3129 15.9234 30.8011 16.2506 31.3539L17.1812 32.9261C17.5025 33.4689 18.3308 33.4689 18.6521 32.9261L19.5827 31.3539C19.9099 30.8011 20.1987 30.3129 20.4798 29.9272C20.784 29.5098 21.133 29.1339 21.6168 28.8525C22.1048 28.5687 22.6125 28.4526 23.1316 28.3951C23.6148 28.3416 24.1961 28.3316 24.8594 28.3202L24.9124 28.3193C27.0049 28.2832 28.1013 28.1501 28.9607 27.7941C30.6963 27.0752 32.0752 25.6963 32.7941 23.9607C33.0377 23.3727 33.182 22.6564 33.2569 21.5579C33.3327 20.4482 33.3333 19.0419 33.3333 17.0833V15.4167C33.3333 12.6646 33.332 10.6883 33.1854 9.14681C33.0406 7.62389 32.763 6.65484 32.2895 5.8823C31.7055 4.9292 30.9041 4.12786 29.951 3.5438C29.1785 3.07038 28.2094 2.79269 26.6865 2.64789C25.145 2.50132 23.1687 2.5 20.4167 2.5H15.4167C12.6646 2.5 10.6883 2.50132 9.14681 2.64789ZM10 12.9167C10 12.2263 10.5596 11.6667 11.25 11.6667H24.5833C25.2737 11.6667 25.8333 12.2263 25.8333 12.9167C25.8333 13.607 25.2737 14.1667 24.5833 14.1667H11.25C10.5596 14.1667 10 13.607 10 12.9167ZM10 18.75C10 18.0596 10.5596 17.5 11.25 17.5H20.4167C21.107 17.5 21.6667 18.0596 21.6667 18.75C21.6667 19.4404 21.107 20 20.4167 20H11.25C10.5596 20 10 19.4404 10 18.75Z" fill="#9197B3"/>
<path d="M14.2164 28.8525C13.7285 28.5687 13.2208 28.4526 12.7016 28.3951C12.2185 28.3416 11.6372 28.3316 10.9739 28.3202L10.9208 28.3193C8.82844 28.2832 7.73205 28.1501 6.87266 27.7941C5.13704 27.0752 3.7581 25.6963 3.03919 23.9607C2.79562 23.3727 2.65134 22.6564 2.57639 21.5579C2.50068 20.4482 2.5 19.0419 2.5 17.0833V15.4167C2.5 12.6646 2.50132 10.6883 2.64789 9.14681C2.79269 7.62389 3.07038 6.65484 3.5438 5.8823C4.12786 4.9292 4.9292 4.12786 5.8823 3.5438C6.65484 3.07038 7.62389 2.79269 9.14681 2.64789C10.6883 2.50132 12.6646 2.5 15.4167 2.5H20.4167C23.1687 2.5 25.145 2.50132 26.6865 2.64789C28.2094 2.79269 29.1785 3.07038 29.951 3.5438C30.9041 4.12786 31.7055 4.9292 32.2895 5.8823C32.763 6.65484 33.0406 7.62389 33.1854 9.14681C33.332 10.6883 33.3333 12.6646 33.3333 15.4167V17.0833C33.3333 19.0419 33.3327 20.4482 33.2569 21.5579C33.182 22.6564 33.0377 23.3727 32.7941 23.9607C32.0752 25.6963 30.6963 27.0752 28.9607 27.7941C28.1013 28.1501 27.0049 28.2832 24.9124 28.3193L24.8594 28.3202C24.1961 28.3316 23.6148 28.3416 23.1316 28.3951C22.6125 28.4526 22.1048 28.5687 21.6168 28.8525C21.133 29.1339 20.784 29.5098 20.4798 29.9272C20.1987 30.3129 19.9099 30.8011 19.5827 31.3539L18.6521 32.9261C18.3308 33.4689 17.5025 33.4689 17.1812 32.9261L16.2506 31.3539C15.9234 30.8011 15.6345 30.3129 15.3534 29.9272C15.0492 29.5098 14.7003 29.1339 14.2164 28.8525ZM14.2164 28.8525L13.588 29.9331M15.3511 1.73269e-07C12.6788 -1.04562e-05 10.5838 -1.8701e-05 8.91018 0.159112C7.20426 0.321312 5.80742 0.657615 4.57606 1.4122C3.28657 2.2024 2.2024 3.28657 1.4122 4.57605C0.657615 5.80742 0.321312 7.20426 0.159112 8.91018C-1.8701e-05 10.5838 -1.04562e-05 12.6788 1.73269e-07 15.3511L3.71951e-07 17.1297C-5.09181e-06 19.0319 -9.3629e-06 20.5233 0.0821919 21.7281C0.165826 22.9538 0.338715 23.974 0.729488 24.9174C1.70214 27.2656 3.56777 29.1312 5.91595 30.1038C7.25757 30.6596 8.78563 30.7828 10.8778 30.8189C11.6096 30.8315 12.0731 30.8408 12.4265 30.8799C12.7566 30.9164 12.8846 30.97 12.9595 31.0136C13.0385 31.0596 13.1462 31.1433 13.3331 31.3997C13.5354 31.6773 13.7639 32.0608 14.1263 32.6731L15.0298 34.1995C16.3191 36.3777 19.5142 36.3777 20.8034 34.1995L21.7069 32.6731C22.0694 32.0608 22.2979 31.6773 22.5002 31.3997C22.6871 31.1433 22.7947 31.0596 22.8737 31.0136C22.9486 30.97 23.0766 30.9164 23.4068 30.8799C23.7601 30.8408 24.2237 30.8315 24.9555 30.8189C27.0477 30.7828 28.5758 30.6596 29.9174 30.1038C32.2656 29.1312 34.1312 27.2656 35.1038 24.9174C35.4946 23.974 35.6675 22.9538 35.7511 21.7281C35.8333 20.5233 35.8333 19.0319 35.8333 17.1297V15.351C35.8333 12.6787 35.8334 10.5838 35.6742 8.91018C35.512 7.20426 35.1757 5.80742 34.4211 4.57605C33.6309 3.28657 32.5468 2.2024 31.2573 1.4122C30.0259 0.657615 28.6291 0.321312 26.9232 0.159112C25.2495 -1.8701e-05 23.1546 -1.04562e-05 20.4823 1.73269e-07H15.3511ZM11.25 11.6667C10.5596 11.6667 10 12.2263 10 12.9167C10 13.607 10.5596 14.1667 11.25 14.1667H24.5833C25.2737 14.1667 25.8333 13.607 25.8333 12.9167C25.8333 12.2263 25.2737 11.6667 24.5833 11.6667H11.25ZM11.25 17.5C10.5596 17.5 10 18.0596 10 18.75C10 19.4404 10.5596 20 11.25 20H20.4167C21.107 20 21.6667 19.4404 21.6667 18.75C21.6667 18.0596 21.107 17.5 20.4167 17.5H11.25Z" stroke="#9197B3" stroke-width="0.5" stroke-linecap="round"/>
</svg>
