<svg width="25" height="24" viewBox="0 0 25 24" fill="none" xmlns="http://www.w3.org/2000/svg">
<path d="M17 7.5C17 9.54251 15.2663 11.25 13.0625 11.25C10.8587 11.25 9.125 9.54251 9.125 7.5C9.125 5.45749 10.8587 3.75 13.0625 3.75C15.2663 3.75 17 5.45749 17 7.5Z" stroke="#9197B3" stroke-width="1.5" stroke-linecap="round"/>
<path d="M17.8812 7.13654C18.26 6.50657 18.8898 6.03835 19.6391 5.84561C20.3888 5.65275 21.1869 5.75448 21.8552 6.12489C22.5226 6.4948 23.0005 7.09859 23.195 7.79576C23.3894 8.49199 23.2886 9.23478 22.9105 9.86346C22.5316 10.4934 21.9019 10.9616 21.1526 11.1544C20.4028 11.3473 19.6048 11.2455 18.9365 10.8751C18.2691 10.5052 17.7912 9.90141 17.5966 9.20424C17.4023 8.50801 17.5031 7.76522 17.8812 7.13654L17.8812 7.13654Z" stroke="#9197B3" stroke-width="1.5"/>
<path d="M3.21418 7.13654C3.59304 6.50657 4.22278 6.03835 4.97207 5.84561C5.72185 5.65275 6.51987 5.75448 7.18818 6.12489C7.85558 6.4948 8.33347 7.09859 8.52806 7.79576C8.72238 8.49199 8.6216 9.23478 8.2435 9.86346C7.86464 10.4934 7.2349 10.9616 6.48561 11.1544C5.73584 11.3473 4.93781 11.2455 4.26951 10.8751C3.6021 10.5052 3.12422 9.90141 2.92963 9.20424C2.7353 8.50801 2.83608 7.76522 3.21418 7.13654L3.21418 7.13654Z" stroke="#9197B3" stroke-width="1.5"/>
<path d="M18.6859 18.5414L17.9518 18.6954L18.0769 19.2914H18.6859V18.5414ZM24.181 17.4403L23.4721 17.6851L23.4721 17.6851L24.181 17.4403ZM16.6973 15.1458L16.1835 14.5994L15.5455 15.1993L16.2363 15.7375L16.6973 15.1458ZM23.3221 17.7914H18.6859V19.2914H23.3221V17.7914ZM23.4721 17.6851C23.4797 17.7072 23.4774 17.7159 23.4774 17.7161C23.477 17.718 23.4755 17.7246 23.4671 17.735C23.4496 17.7569 23.403 17.7914 23.3221 17.7914V19.2914C24.3394 19.2914 25.2869 18.3453 24.8899 17.1956L23.4721 17.6851ZM19.7302 14.75C22.0505 14.75 23.0422 16.4401 23.4721 17.6851L24.8899 17.1956C24.3917 15.7524 23.0343 13.25 19.7302 13.25V14.75ZM17.211 15.6922C17.7784 15.1587 18.5735 14.75 19.7302 14.75V13.25C18.1707 13.25 17.0134 13.819 16.1835 14.5994L17.211 15.6922ZM16.2363 15.7375C17.3067 16.5714 17.7623 17.7921 17.9518 18.6954L19.4199 18.3874C19.1957 17.319 18.6266 15.6982 17.1582 14.5542L16.2363 15.7375Z" fill="#9197B3"/>
<path d="M9.34866 14.9842L9.77543 15.6009L10.5835 15.0418L9.831 14.4098L9.34866 14.9842ZM2.04673 17.4403L2.75566 17.6851L2.75566 17.6851L2.04673 17.4403ZM7.13999 18.5414V19.2914H7.74898L7.87402 18.6954L7.13999 18.5414ZM6.49758 14.75C7.56041 14.75 8.31431 15.0949 8.86633 15.5585L9.831 14.4098C9.01629 13.7256 7.92299 13.25 6.49758 13.25V14.75ZM2.75566 17.6851C3.18553 16.4401 4.17722 14.75 6.49758 14.75V13.25C3.19348 13.25 1.83607 15.7524 1.33779 17.1956L2.75566 17.6851ZM2.90561 17.7914C2.8247 17.7914 2.77817 17.7569 2.76059 17.735C2.75226 17.7246 2.7507 17.718 2.75035 17.7161C2.75031 17.7159 2.74802 17.7072 2.75566 17.6851L1.33779 17.1956C0.940847 18.3453 1.88829 19.2914 2.90561 19.2914V17.7914ZM7.13999 17.7914H2.90561V19.2914H7.13999V17.7914ZM7.87402 18.6954C8.07443 17.7401 8.57097 16.4344 9.77543 15.6009L8.92189 14.3674C7.26393 15.5147 6.64234 17.2607 6.40597 18.3874L7.87402 18.6954Z" fill="#9197B3"/>
<path d="M12.7292 14C16.9798 14 18.0768 17.3027 18.3599 19.0074C18.4503 19.5522 18.0106 20 17.4583 20H8C7.44771 20 7.008 19.5522 7.09847 19.0074C7.38157 17.3027 8.47855 14 12.7292 14Z" stroke="#9197B3" stroke-width="1.5" stroke-linecap="round"/>
</svg>
