<svg width="30" height="25" viewBox="0 0 30 25" fill="none" xmlns="http://www.w3.org/2000/svg">
<path d="M3.22222 5.6H25.7778M3.22222 5.6V20.9333H25.7778V5.6M3.22222 5.6V11.7333L4.43103 11.1581C5.642 10.5819 7.08655 10.8111 8.05555 11.7333C9.00065 12.6328 10.4443 12.7733 11.5478 12.0731L12.0833 11.7333C13.5565 10.7986 15.4435 10.7986 16.9167 11.7333L17.4522 12.0731C18.5557 12.7733 19.9993 12.6328 20.9444 11.7333C21.9134 10.8111 23.358 10.5819 24.569 11.1581L25.7778 11.7333V5.6M8.05555 5.6C8.94535 5.6 9.66667 4.9135 9.66667 4.06667C9.66667 3.50211 9.12963 2.47989 8.05555 1C6.98148 2.47989 6.44444 3.50211 6.44444 4.06667C6.44444 4.9135 7.16576 5.6 8.05555 5.6ZM14.5 5.6C15.3898 5.6 16.1111 4.9135 16.1111 4.06667C16.1111 3.50211 15.5741 2.47989 14.5 1C13.4259 2.47989 12.8889 3.50211 12.8889 4.06667C12.8889 4.9135 13.6102 5.6 14.5 5.6ZM20.9444 5.6C21.8342 5.6 22.5556 4.9135 22.5556 4.06667C22.5556 3.50211 22.0185 2.47989 20.9444 1C19.8704 2.47989 19.3333 3.50211 19.3333 4.06667C19.3333 4.9135 20.0547 5.6 20.9444 5.6ZM3.09333 24H25.9067C27.6151 24 29 22.627 29 20.9333H0C0 22.627 1.38493 24 3.09333 24Z" stroke="black" stroke-width="2" stroke-linejoin="round"/>
</svg>
