<svg width="50" height="50" viewBox="0 0 50 50" fill="none" xmlns="http://www.w3.org/2000/svg">
<path d="M23.4506 12.5325C23.8236 10.8812 26.1764 10.8812 26.5494 12.5325C27.1716 15.287 30.3326 16.5963 32.7203 15.0885C34.1517 14.1847 35.8153 15.8483 34.9115 17.2797C33.4037 19.6674 34.713 22.8284 37.4675 23.4506C39.1188 23.8236 39.1188 26.1764 37.4675 26.5494C34.713 27.1716 33.4037 30.3326 34.9115 32.7203C35.8153 34.1517 34.1517 35.8153 32.7203 34.9115C30.3326 33.4037 27.1716 34.713 26.5494 37.4675C26.1764 39.1188 23.8236 39.1188 23.4506 37.4675C22.8284 34.713 19.6674 33.4037 17.2797 34.9115C15.8483 35.8153 14.1847 34.1517 15.0885 32.7203C16.5963 30.3326 15.287 27.1716 12.5325 26.5494C10.8812 26.1764 10.8812 23.8236 12.5325 23.4506C15.287 22.8284 16.5963 19.6674 15.0885 17.2797C14.1847 15.8483 15.8483 14.1847 17.2797 15.0885C19.6674 16.5963 22.8284 15.287 23.4506 12.5325Z" stroke="#9197B3" stroke-width="2.5"/>
<path d="M28.75 25.002C28.75 27.073 27.0711 28.752 25 28.752C22.9289 28.752 21.25 27.073 21.25 25.002C21.25 22.9309 22.9289 21.252 25 21.252C27.0711 21.252 28.75 22.9309 28.75 25.002Z" stroke="#9197B3" stroke-width="2.5"/>
</svg>
